<svg id="gdo_white" data-name="Layer 1" xmlns="http://www.w3.org/2000/svg" viewBox="0 0 412 216">
  <defs>
    <style>
      .cls-1{fill:#fff}
    </style>
  </defs>
  <path class="cls-1" d="M376.6 28.1c-.6-.6-1.3-1.2-1.9-1.7a107.58 107.58 0 00-31.1-18.9c-.8-.3-1.6-.6-2.5-.9-1.7-.6-3.3-1.2-5-1.7-.8-.3-1.7-.5-2.5-.8A106.89 106.89 0 00304 0H195.5v44.7A108 108 0 10144 209.8v6.2h72v-.4l88 .4a106.89 106.89 0 0029.6-4.1 18.29 18.29 0 002.5-.8c1.7-.5 3.4-1.1 5-1.7.8-.3 1.6-.6 2.5-.9a109.51 109.51 0 0031.1-18.8c.7-.6 1.3-1.1 1.9-1.7a108 108 0 000-159.9zM215.5 20h25.9a110.66 110.66 0 00-25.9 26.1zm-20 96h-52.4a36 36 0 11.2-15h52.2zm-58.2 75a88 88 0 1154.5-110h-34.7a55.94 55.94 0 10-.5 55h38.9v60H164v-14.4zm78.7 4.6v-25a106.39 106.39 0 0025 25.1zm88 .4a88 88 0 1188-88 88.13 88.13 0 01-88 88z"/>
  <path class="cls-1" d="M304 52a56 56 0 1056 56 56 56 0 00-56-56zm-.1 92a36 36 0 1135.9-36 36 36 0 01-35.9 36z"/>
</svg>