<!-- Generator: Adobe Illustrator 21.0.2, SVG Export Plug-In  -->
<svg version="1.1"
	 xmlns="http://www.w3.org/2000/svg" xmlns:xlink="http://www.w3.org/1999/xlink" xmlns:a="http://ns.adobe.com/AdobeSVGViewerExtensions/3.0/"
	 x="0px" y="0px" width="412px" height="216px" viewBox="0 0 412 216" style="enable-background:new 0 0 412 216;"
	 xml:space="preserve">
<defs>
</defs>
<g>
	<path d="M376.6,28.1c-0.6-0.6-1.3-1.2-1.9-1.7C365.5,18.4,355,12,343.6,7.5c-0.8-0.3-1.6-0.6-2.5-0.9c-1.7-0.6-3.3-1.2-5-1.7
		c-0.8-0.3-1.7-0.5-2.5-0.8C324.2,1.4,314.3,0,304,0H195.5v44.7C175.9,17.6,144,0,108,0C48.4,0,0,48.4,0,108
		c0,59.6,48.4,108,108,108c12.6,0,24.7-2.2,36-6.2v6.2h72v-0.4l88,0.4h0h0c10.3,0,20.2-1.4,29.6-4.1c0.9-0.2,1.7-0.5,2.5-0.8
		c1.7-0.5,3.4-1.1,5-1.7c0.8-0.3,1.6-0.6,2.5-0.9c11.4-4.5,21.9-10.9,31.1-18.8c0.7-0.6,1.3-1.1,1.9-1.7
		c21.7-19.8,35.4-48.3,35.4-79.9C412,76.3,398.4,47.8,376.6,28.1z M215.5,20h25.9c-10,7.2-18.8,16-25.9,26.1V20z M195.5,116h-52.4
		c-3.6,16-18,28-35.1,28c-19.9,0-36-16.1-36-36s16.1-36,36-36c17.5,0,32.1,12.5,35.3,29h52.2V116z M137.3,191
		c-9.4,3.3-19.3,5-29.3,5c-48.5,0-88-39.5-88-88s39.5-88,88-88c38.9,0,72.3,25.5,83.8,61h-34.7c-9.6-17.5-28.3-29-49.1-29
		c-30.9,0-56,25.1-56,56s25.1,56,56,56c20.6,0,38.8-11,48.6-28h38.9v60H164v-14.4L137.3,191z M216,195.6v-25
		c6.9,9.7,15.3,18.2,25,25.1L216,195.6z M304,196c-48.5,0-88-39.5-88-88s39.5-88,88-88s88,39.5,88,88S352.5,196,304,196z"/>
	<path d="M304,52c-30.9,0-56,25.1-56,56s25.1,56,56,56s56-25.1,56-56S334.9,52,304,52z M303.9,144c-19.8,0-35.9-16.1-35.9-36
		s16.1-36,35.9-36c19.8,0,35.9,16.1,35.9,36S323.8,144,303.9,144z"/>
</g>
</svg>
